<?xml version="1.0" encoding="utf-8"?>
<!-- Generator: Adobe Illustrator 19.1.0, SVG Export Plug-In . SVG Version: 6.00 Build 0)  -->
<svg version="1.1" id="Layer_1" xmlns="http://www.w3.org/2000/svg" xmlns:xlink="http://www.w3.org/1999/xlink" x="0px" y="0px"
	 viewBox="0 0 14 14" enable-background="new 0 0 14 14" xml:space="preserve">
<g>
	<polygon fill="#E0E0E0" points="9.1,4.1 7,6.3 4.9,4.1 4.1,4.9 6.3,7 4.1,9.1 4.9,9.9 7,7.7 9.1,9.9 9.9,9.1 7.7,7 9.9,4.9 	"/>
	<path fill="#E0E0E0" d="M7,0C3.1,0,0,3.1,0,7s3.1,7,7,7c3.9,0,7-3.1,7-7S10.9,0,7,0z M7,13.5c-3.6,0-6.5-2.9-6.5-6.5S3.4,0.5,7,0.5
		s6.5,2.9,6.5,6.5S10.6,13.5,7,13.5z"/>
</g>
</svg>
