<?xml version="1.0" encoding="UTF-8"?>
<!-- Generator: Adobe Illustrator 19.1.0, SVG Export Plug-In . SVG Version: 6.00 Build 0)  -->
<svg version="1.1" id="Layer_1" xmlns="http://www.w3.org/2000/svg" xmlns:xlink="http://www.w3.org/1999/xlink" x="0px" y="0px" viewBox="0 0 155 138" enable-background="new 0 0 155 138" xml:space="preserve">
<circle fill="#777677" cx="79.2" cy="9" r="9.1"/>
<circle fill="#777677" cx="59.2" cy="10" r="9.1"/>
<circle fill="#777677" cx="98.2" cy="10" r="9.1"/>
<circle fill="#777677" cx="79.2" cy="129" r="9.1"/>
<circle fill="#777677" cx="59.2" cy="128" r="9.1"/>
<circle fill="#777677" cx="66.2" cy="108" r="9.1"/>
<circle fill="#777677" cx="92.2" cy="108" r="9.1"/>
<circle fill="#777677" cx="79.2" cy="91" r="9.1"/>
<circle fill="#777677" cx="79.2" cy="69" r="9.1"/>
<circle fill="#777677" cx="119.2" cy="69" r="9.1"/>
<circle fill="#777677" cx="79.2" cy="47" r="9.1"/>
<circle fill="#777677" cx="66.2" cy="31" r="9.1"/>
<circle fill="#777677" cx="92.2" cy="31" r="9.1"/>
<circle fill="#777677" cx="112.2" cy="45" r="9.1"/>
<circle fill="#777677" cx="45.2" cy="45" r="9.1"/>
<circle fill="#777677" cx="39.2" cy="69" r="9.1"/>
<circle fill="#777677" cx="45.2" cy="94" r="9.1"/>
<circle fill="#777677" cx="112.2" cy="94" r="9.1"/>
<circle fill="#777677" cx="61.2" cy="80" r="9.1"/>
<circle fill="#777677" cx="61.2" cy="58" r="9.1"/>
<circle fill="#777677" cx="96.2" cy="80" r="9.1"/>
<circle fill="#777677" cx="96.2" cy="58" r="9.1"/>
<circle fill="#777677" cx="98.2" cy="128" r="9.1"/>
<circle fill="#777677" cx="114.2" cy="20" r="9.1"/>
<circle fill="#777677" cx="43.2" cy="20" r="9.1"/>
<circle fill="#777677" cx="129.2" cy="32" r="9.1"/>
<circle fill="#777677" cx="28.3" cy="32" r="9.1"/>
<circle fill="#777677" cx="136.2" cy="50" r="9.1"/>
<circle fill="#777677" cx="22.3" cy="50" r="9.1"/>
<circle fill="#777677" cx="141.2" cy="69" r="9.1"/>
<circle fill="#777677" cx="16.3" cy="69" r="9.1"/>
<circle fill="#777677" cx="137.2" cy="88" r="9.1"/>
<circle fill="#777677" cx="22.3" cy="88" r="9.1"/>
<circle fill="#777677" cx="129.2" cy="106" r="9.1"/>
<circle fill="#777677" cx="29.3" cy="106" r="9.1"/>
<circle fill="#777677" cx="114.2" cy="119" r="9.1"/>
<circle fill="#777677" cx="43.2" cy="119" r="9.1"/>
</svg>