<?xml version="1.0" encoding="UTF-8"?>
<!-- Generator: Adobe Illustrator 19.1.0, SVG Export Plug-In . SVG Version: 6.00 Build 0)  -->
<svg version="1.1" id="Layer_1" xmlns="http://www.w3.org/2000/svg" xmlns:xlink="http://www.w3.org/1999/xlink" x="0px" y="0px" viewBox="0 0 155 138" enable-background="new 0 0 155 138" xml:space="preserve">
<circle fill="#777677" cx="21.2" cy="12" r="12"/>
<circle fill="#777677" cx="59.2" cy="12" r="12"/>
<circle fill="#777677" cx="96.2" cy="12" r="12"/>
<circle fill="#777677" cx="134.2" cy="12" r="12"/>
<circle fill="#777677" cx="21.2" cy="50" r="12"/>
<circle fill="#777677" cx="40.2" cy="31" r="12"/>
<circle fill="#777677" cx="77.2" cy="31" r="12"/>
<circle fill="#777677" cx="115.2" cy="31" r="12"/>
<circle fill="#777677" cx="40.2" cy="69" r="12"/>
<circle fill="#777677" cx="77.2" cy="69" r="12"/>
<circle fill="#777677" cx="115.2" cy="69" r="12"/>
<circle fill="#777677" cx="40.2" cy="107" r="12"/>
<circle fill="#777677" cx="77.2" cy="107" r="12"/>
<circle fill="#777677" cx="115.2" cy="107" r="12"/>
<circle fill="#777677" cx="59.2" cy="50" r="12"/>
<circle fill="#777677" cx="96.2" cy="50" r="12"/>
<circle fill="#777677" cx="134.2" cy="50" r="12"/>
<circle fill="#777677" cx="21.2" cy="87" r="12"/>
<circle fill="#777677" cx="59.2" cy="87" r="12"/>
<circle fill="#777677" cx="96.2" cy="87" r="12"/>
<circle fill="#777677" cx="134.2" cy="87" r="12"/>
<circle fill="#777677" cx="21.2" cy="125" r="12"/>
<circle fill="#777677" cx="59.2" cy="125" r="12"/>
<circle fill="#777677" cx="96.2" cy="125" r="12"/>
<circle fill="#777677" cx="134.2" cy="125" r="12"/>
</svg>