<?xml version="1.0" encoding="UTF-8"?>
<!-- Generator: Adobe Illustrator 19.1.0, SVG Export Plug-In . SVG Version: 6.00 Build 0)  -->
<svg version="1.1" id="Layer_1" xmlns="http://www.w3.org/2000/svg" xmlns:xlink="http://www.w3.org/1999/xlink" x="0px" y="0px" viewBox="0 0 155 138" enable-background="new 0 0 155 138" xml:space="preserve">
<circle fill="#777677" cx="50.2" cy="12" r="12"/>
<circle fill="#777677" cx="76.2" cy="12" r="12"/>
<circle fill="#777677" cx="90.2" cy="37" r="12"/>
<circle fill="#777677" cx="63.2" cy="37" r="12"/>
<circle fill="#777677" cx="34.2" cy="32" r="12"/>
<circle fill="#777677" cx="119.2" cy="32" r="12"/>
<circle fill="#777677" cx="18.2" cy="52" r="12"/>
<circle fill="#777677" cx="134.2" cy="52" r="12"/>
<circle fill="#777677" cx="24.2" cy="78" r="12"/>
<circle fill="#777677" cx="30.2" cy="102" r="12"/>
<circle fill="#777677" cx="123.2" cy="102" r="12"/>
<circle fill="#777677" cx="100.2" cy="114" r="12"/>
<circle fill="#777677" cx="53.2" cy="114" r="12"/>
<circle fill="#777677" cx="76.2" cy="124" r="12"/>
<circle fill="#777677" cx="76.2" cy="96" r="12"/>
<circle fill="#777677" cx="76.2" cy="66" r="12"/>
<circle fill="#777677" cx="106.2" cy="58" r="12"/>
<circle fill="#777677" cx="46.2" cy="58" r="12"/>
<circle fill="#777677" cx="52.2" cy="84" r="12"/>
<circle fill="#777677" cx="100.2" cy="84" r="12"/>
<circle fill="#777677" cx="129.2" cy="78" r="12"/>
<circle fill="#777677" cx="102.2" cy="12" r="12"/>
</svg>