<?xml version="1.0" encoding="UTF-8"?>
<!-- Generator: Adobe Illustrator 19.1.0, SVG Export Plug-In . SVG Version: 6.00 Build 0)  -->
<svg version="1.1" id="Layer_1" xmlns="http://www.w3.org/2000/svg" xmlns:xlink="http://www.w3.org/1999/xlink" x="0px" y="0px" viewBox="0 0 155 138" enable-background="new 0 0 155 138" xml:space="preserve">
<circle fill="#777677" cx="54.3" cy="11.1" r="11.1"/>
<circle fill="#777677" cx="78.2" cy="11.1" r="11.1"/>
<circle fill="#777677" cx="78.2" cy="67.1" r="11.1"/>
<circle fill="#777677" cx="65.2" cy="38.1" r="11.1"/>
<circle fill="#777677" cx="90.2" cy="38.1" r="11.1"/>
<circle fill="#777677" cx="65.2" cy="100.1" r="11.1"/>
<circle fill="#777677" cx="90.2" cy="100.1" r="11.1"/>
<circle fill="#777677" cx="108.8" cy="81.6" r="11.1"/>
<circle fill="#777677" cx="108.8" cy="56.6" r="11.1"/>
<circle fill="#777677" cx="46.8" cy="81.6" r="11.1"/>
<circle fill="#777677" cx="46.8" cy="56.6" r="11.1"/>
<circle fill="#777677" cx="102.2" cy="11.1" r="11.1"/>
<circle fill="#777677" cx="54.3" cy="127.1" r="11.1"/>
<circle fill="#777677" cx="78.2" cy="127.1" r="11.1"/>
<circle fill="#777677" cx="102.2" cy="127.1" r="11.1"/>
<circle fill="#777677" cx="135.2" cy="93" r="11.1"/>
<circle fill="#777677" cx="135.2" cy="69.1" r="11.1"/>
<circle fill="#777677" cx="135.2" cy="45.1" r="11.1"/>
<circle fill="#777677" cx="21.2" cy="93" r="11.1"/>
<circle fill="#777677" cx="21.2" cy="69.1" r="11.1"/>
<circle fill="#777677" cx="21.2" cy="45.1" r="11.1"/>
<circle fill="#777677" cx="37.2" cy="28.1" r="11.1"/>
<circle fill="#777677" cx="118.2" cy="28.1" r="11.1"/>
<circle fill="#777677" cx="37.2" cy="110.1" r="11.1"/>
<circle fill="#777677" cx="118.2" cy="110.1" r="11.1"/>
</svg>