<?xml version="1.0" encoding="UTF-8"?>
<!-- Generator: Adobe Illustrator 19.1.0, SVG Export Plug-In . SVG Version: 6.00 Build 0)  -->
<svg version="1.1" id="Layer_1" xmlns="http://www.w3.org/2000/svg" xmlns:xlink="http://www.w3.org/1999/xlink" x="0px" y="0px" viewBox="0 0 155 138" enable-background="new 0 0 155 138" xml:space="preserve">
<circle fill="#777677" cx="79.2" cy="9" r="9.1"/>
<circle fill="#777677" cx="99.2" cy="14" r="9.1"/>
<circle fill="#777677" cx="58.2" cy="14" r="9.1"/>
<circle fill="#777677" cx="117.2" cy="23" r="9.1"/>
<circle fill="#777677" cx="39.2" cy="23" r="9.1"/>
<circle fill="#777677" cx="130.2" cy="40" r="9.1"/>
<circle fill="#777677" cx="139.2" cy="59" r="9.1"/>
<circle fill="#777677" cx="18.3" cy="59" r="9.1"/>
<circle fill="#777677" cx="20.3" cy="81" r="9.1"/>
<circle fill="#777677" cx="137.2" cy="81" r="9.1"/>
<circle fill="#777677" cx="132.2" cy="101" r="9.1"/>
<circle fill="#777677" cx="25.3" cy="101" r="9.1"/>
<circle fill="#777677" cx="39.2" cy="117" r="9.1"/>
<circle fill="#777677" cx="116.2" cy="117" r="9.1"/>
<circle fill="#777677" cx="99.2" cy="128" r="9.1"/>
<circle fill="#777677" cx="57.2" cy="128" r="9.1"/>
<circle fill="#777677" cx="65.2" cy="109" r="9.1"/>
<circle fill="#777677" cx="92.2" cy="109" r="9.1"/>
<circle fill="#777677" cx="97.2" cy="82" r="9.1"/>
<circle fill="#777677" cx="61.2" cy="82" r="9.1"/>
<circle fill="#777677" cx="43.2" cy="92" r="9.1"/>
<circle fill="#777677" cx="114.2" cy="92" r="9.1"/>
<circle fill="#777677" cx="117.2" cy="65" r="9.1"/>
<circle fill="#777677" cx="40.2" cy="65" r="9.1"/>
<circle fill="#777677" cx="97.2" cy="61" r="9.1"/>
<circle fill="#777677" cx="61.2" cy="61" r="9.1"/>
<circle fill="#777677" cx="105.2" cy="42" r="9.1"/>
<circle fill="#777677" cx="52.2" cy="42" r="9.1"/>
<circle fill="#777677" cx="27.3" cy="40" r="9.1"/>
<circle fill="#777677" cx="79.2" cy="30" r="9.1"/>
<circle fill="#777677" cx="79.2" cy="50" r="9.1"/>
<circle fill="#777677" cx="79.2" cy="72" r="9.1"/>
<circle fill="#777677" cx="79.2" cy="94" r="9.1"/>
<circle fill="#777677" cx="79.2" cy="129" r="9.1"/>
</svg>